<?xml version="1.0" ?><svg data-name="Background Bottom" id="Background_Bottom" viewBox="0 0 473.49 498.23" xmlns="http://www.w3.org/2000/svg"><defs><style>.cls-1{fill:#1d2628;}.cls-2{fill:#0e0e0e;opacity:0.45;}.cls-3{fill:#fff;}</style></defs><title/><path d="M492.33,443.13A61.87,61.87,0,0,1,430.45,505H80.71a61.87,61.87,0,0,1-61.87-61.87V93.38A61.87,61.87,0,0,1,80.71,31.51H430.45a61.87,61.87,0,0,1,61.87,61.87V443.13Z" transform="translate(-18.84 -6.77)"/><path class="cls-1" d="M492.33,418.38a61.87,61.87,0,0,1-61.87,61.87H80.71a61.87,61.87,0,0,1-61.87-61.87V68.64A61.87,61.87,0,0,1,80.71,6.77H430.45a61.87,61.87,0,0,1,61.87,61.87V418.38Z" transform="translate(-18.84 -6.77)"/><path class="cls-2" d="M383,147.55A166.11,166.11,0,1,0,145.25,378.72L246.73,480.19l184,0.07a61.63,61.63,0,0,0,61.63-61.63c0-13.46,0-161.73,0-161.73Z" transform="translate(-18.84 -6.77)"/><path class="cls-3" d="M421.48,254.44c0,91.47-74.52,166-166,165.88S89.6,345.87,89.63,254.37s74.66-166.09,166-165.9C347.25,88.65,421.48,162.92,421.48,254.44Zm-255.25.18A89.43,89.43,0,0,0,255.54,344c49.39,0,89.14-40.51,89.3-89.13a89.31,89.31,0,0,0-89.25-89.76C206.5,165,166.23,205.37,166.23,254.62Zm50.2,87.21L204,367.74a119.33,119.33,0,0,0,47.93,11v-28.6A98.4,98.4,0,0,1,216.43,341.83ZM182.15,316.2l-22.41,18.1A122.78,122.78,0,0,0,198.09,365l12.4-25.89A93.51,93.51,0,0,1,182.15,316.2Zm130.31,49.05a129.84,129.84,0,0,0,38.62-31l-22.39-17.8a97.94,97.94,0,0,1-28.63,22.89Zm42.27-35.93c7.25-7,21.58-37.54,20.91-44.48l-27.53-6.41a91,91,0,0,1-15.67,32.91ZM161.1,272.21a95.5,95.5,0,0,1,.28-36.43l-27.77-6.46c-3.75,16.54-3.26,32.89-.56,49.37Zm145.45,96.05-12.42-25.9a93.27,93.27,0,0,1-35.57,8.09V379A129.86,129.86,0,0,0,306.55,368.27Zm25.62-171.33a97.38,97.38,0,0,1,15.95,32.64l28-6.21a127.56,127.56,0,0,0-21.61-44.23Zm17.29,38.84a96.24,96.24,0,0,1,.29,36.43l27.77,6.47a125.67,125.67,0,0,0,0-49.1Zm-166.5-44a99.55,99.55,0,0,1,28.35-22.37L198.9,143.52A125.49,125.49,0,0,0,160.56,174ZM294.14,166.7l12.41-25.62a122.48,122.48,0,0,0-47.69-11v28.58A97.21,97.21,0,0,1,294.14,166.7ZM163,229a96.14,96.14,0,0,1,15.93-32.37l-22.38-17.8a124.89,124.89,0,0,0-21.61,43.69Zm15.11,82.3a95.31,95.31,0,0,1-9.49-15.67,93.07,93.07,0,0,1-6.17-17.25l-27.78,6.21a124.19,124.19,0,0,0,21.07,44.23Zm74.13-152.71V130a130.9,130.9,0,0,0-47.41,10.51l12.41,25.89A101.27,101.27,0,0,1,252.24,158.63Zm75.92,33.43,22.4-17.54a128,128,0,0,0-38.07-30.46L300.07,169.7A98.42,98.42,0,0,1,328.16,192.06Zm-69-96.82v28.31a135.69,135.69,0,0,1,25.28,3.2l6.74-27.52A158.62,158.62,0,0,0,259.16,95.24Zm-6.39,28.31V95A176.18,176.18,0,0,0,221,98.72l6.47,27.77A131.72,131.72,0,0,1,252.77,123.56Zm-147.5,77.16A150.78,150.78,0,0,0,97.72,232l28.32,3.5A123,123,0,0,1,132,211Zm44.38,131-23.33,16.09a163.59,163.59,0,0,0,21.32,24l18.8-21.22c-2.92-3.07-5.88-6-8.64-9.12S152.41,335,149.65,331.67Zm-27.11,11,23.15-16L133.76,304.2l-26.05,10.1A156.5,156.5,0,0,0,122.54,342.63ZM171.37,154a139.16,139.16,0,0,1,20.77-14.31l-13.21-25.08c-9.4,5.24-18.37,10.94-26.44,18.07ZM124.68,267.12V241.69l-27.77-3.47a156.13,156.13,0,0,0,0,32.1Zm-19.4,41,26.1-9.85-6-24.63-27.68,3.2A150.29,150.29,0,0,0,105.28,308.09ZM361.88,177.85l23.18-16a162.1,162.1,0,0,0-21-24l-18.67,21.07Zm41.79,17.74a156,156,0,0,0-14.84-28.33l-23.34,16.1c2.1,3.68,4.24,7.21,6.15,10.85s3.64,7.46,5.49,11.3ZM166.52,158.35L147.63,137a161.68,161.68,0,0,0-21,24l23.2,16.18A124.79,124.79,0,0,1,166.52,158.35Zm18.07,238.79a140.94,140.94,0,0,0,30,11.29l6.74-27.49a126,126,0,0,1-23.48-8.89Zm30-296.77a140.77,140.77,0,0,0-30,11.3l13.22,25.08a119.52,119.52,0,0,1,23.47-8.9Zm76.09,309.75L284,382.91l-24.83,3v28A156.24,156.24,0,0,0,290.64,410.12Zm-38.37,3.71V385.53a131.68,131.68,0,0,1-24.78-2.94l-7,27.51A177.15,177.15,0,0,0,252.27,413.83ZM145.7,182.42l-23.15-16a175.12,175.12,0,0,0-14.83,28.33l26,9.83ZM333,115.2L319.93,140l20.61,14.31,18.63-20.76A146.74,146.74,0,0,0,333,115.2ZM313.57,371.79a126.11,126.11,0,0,1-23.48,8.89l7,27.5a145.67,145.67,0,0,0,29.68-11.31Zm18.87,22.09a159.66,159.66,0,0,0,26.18-18.06l-18.89-21.31a124.41,124.41,0,0,1-20.5,14.31Zm-140.57-24.8a124.55,124.55,0,0,1-20.51-14.3L152.48,376.1a159.75,159.75,0,0,0,26.19,18ZM386.16,242.26a147.64,147.64,0,0,1,0,25.1l28,3.5a153,153,0,0,0,0-31.83Zm27.24-9.71a167.71,167.71,0,0,0-7.57-31l-26.43,10a124.66,124.66,0,0,1,5.67,24.28Zm-0.28,44.79-28-3.51a125.78,125.78,0,0,1-5.93,24.29l26.42,10.24A166.63,166.63,0,0,0,413.12,277.34Zm-28.86,70.42-23.2-16.18a121.68,121.68,0,0,1-16.45,18.62l18.88,21.31A144.41,144.41,0,0,0,384.25,347.76Zm-57.2-235.28a165.35,165.35,0,0,0-29.69-11.58l-6.74,27.51a113.53,113.53,0,0,1,23.48,8.87Zm61.24,229.61A145.72,145.72,0,0,0,403.14,314l-26.43-10a123.67,123.67,0,0,1-11.6,21.85Z" transform="translate(-18.84 -6.77)"/></svg>